<svg xmlns="http://www.w3.org/2000/svg" viewBox="0 0 47.5 47.5"><defs><clipPath id="a"><path d="M0 38h38V0H0v38Z"/></clipPath></defs><g clip-path="url(#a)" transform="matrix(1.25 0 0 -1.25 0 47.5)"><path fill="#dd2e44" d="M37 10a4 4 0 0 0-4-4H5a4 4 0 0 0-4 4v18a4 4 0 0 0 4 4h28a4 4 0 0 0 4-4V10Z"/><path fill="#ffd983" d="m8 26.049.929-2.67 2.826-.059-2.253-1.708.819-2.706L8 20.521l-2.321-1.615.819 2.706-2.253 1.708 2.826.059.929 2.67ZM14 29.472l.34-.688.759-.11-.549-.536.129-.756-.679.357-.679-.357.13.756-.55.536.76.11.339.688ZM16 25.472l.34-.688.759-.11-.549-.536.129-.756-.679.357-.679-.357.13.756-.55.536.76.11.339.688ZM16 21.472l.34-.688.759-.11-.549-.536.129-.756-.679.357-.679-.357.13.756-.55.536.76.11.339.688ZM14 17.473l.34-.688.759-.111-.549-.535.129-.757-.679.357-.679-.357.13.757-.55.535.76.111.339.688Z"/></g></svg>